Coordinates
version=1
nRows=18
nColumns=63
inDegrees=yes

Units are S.I. units (second, meters, Newtons, ...)
If the header above contains a line with 'inDegrees', this indicates whether rotational values are in degrees (yes) or radians (no).

endheader
time	pelvis_tilt	pelvis_list	pelvis_rotation	pelvis_tx	pelvis_ty	pelvis_tz	hip_flexion_r	hip_adduction_r	hip_rotation_r	knee_angle_r	knee_angle_r_beta	ankle_angle_r	subtalar_angle_r	mtp_angle_r	hip_flexion_l	hip_adduction_l	hip_rotation_l	knee_angle_l	knee_angle_l_beta	ankle_angle_l	subtalar_angle_l	mtp_angle_l	L5_S1_Flex_Ext	L5_S1_Lat_Bending	L5_S1_axial_rotation	L4_L5_Flex_Ext	L4_L5_Lat_Bending	L4_L5_axial_rotation	L3_L4_Flex_Ext	L3_L4_Lat_Bending	L3_L4_axial_rotation	L2_L3_Flex_Ext	L2_L3_Lat_Bending	L2_L3_axial_rotation	L1_L2_Flex_Ext	L1_L2_Lat_Bending	L1_L2_axial_rotation	L1_T12_Flex_Ext	L1_T12_Lat_Bending	L1_T12_axial_rotation	Abs_r3	Abs_r2	Abs_r1	Abs_t1	Abs_t2	neck_flexion	neck_bending	neck_rotation	arm_flex_r	arm_add_r	arm_rot_r	elbow_flex_r	pro_sup_r	wrist_flex_r	wrist_dev_r	arm_flex_l	arm_add_l	arm_rot_l	elbow_flex_l	pro_sup_l	wrist_flex_l	wrist_dev_l
0.000000	2.081654	-2.985089	89.838070	0.235766	1.022164	0.428784	2.600884	3.191761	3.956686	2.564564	0.044760	23.170231	-11.097637	0.000000	1.444018	-2.023612	2.809891	1.189126	0.020754	23.371098	-3.920778	0.000000	0.160470	0.358165	1.289301	0.298009	0.476360	1.369883	0.263636	0.870843	1.369883	0.183401	0.870843	1.128139	0.149012	0.730371	1.047557	0.091693	0.554798	0.966976	1.146222	4.051637	7.170707	0.000000	0.000000	25.394926	-2.526949	3.622667	19.923760	-4.525049	97.756204	38.865967	88.605764	2.303856	27.109141	25.211707	-1.170624	86.282680	38.766117	88.303533	21.396425	32.553649
0.016667	2.085214	-3.067118	90.451291	0.234471	1.021527	0.430640	2.846950	3.076507	3.421282	2.717146	0.047423	23.347751	-10.909217	0.000000	1.845493	-1.949421	2.883307	1.283307	0.022398	23.809752	-3.636682	0.000000	0.153807	0.374435	1.006294	0.285635	0.497999	1.069187	0.252690	0.910402	1.069187	0.175786	0.910402	0.880507	0.142825	0.763548	0.817614	0.087885	0.580000	0.754720	1.098629	4.235687	5.596704	0.000000	0.000000	25.460824	-1.875490	5.025251	20.501319	-4.372789	98.796004	39.066946	88.308659	1.523716	26.507465	24.377965	-2.116211	82.893559	39.568703	88.195775	20.489029	33.195978
0.033333	2.095411	-3.107143	90.971871	0.233386	1.021048	0.432009	3.000646	2.987074	2.985424	2.823961	0.049287	23.510270	-10.738245	0.000000	2.136215	-1.897606	2.902399	1.351818	0.023594	24.217258	-3.314576	0.000000	0.147334	0.388192	0.774475	0.273614	0.516296	0.822879	0.242055	0.943851	0.822879	0.168388	0.943851	0.677665	0.136815	0.791602	0.629261	0.084187	0.601310	0.580856	1.052394	4.391309	4.307397	0.000000	0.000000	25.486534	-1.355963	6.137551	20.955070	-4.257174	99.572743	39.218450	88.109831	1.088823	26.094640	23.810256	-2.810792	80.621350	40.164230	88.126959	19.770577	33.642307
0.050000	2.111308	-3.110101	91.407362	0.232494	1.020713	0.432933	3.071060	2.921039	2.642481	2.888379	0.050412	23.656421	-10.587092	0.000000	2.326952	-1.865844	2.877021	1.397076	0.024384	24.593152	-2.965032	0.000000	0.141145	0.399556	0.589942	0.262121	0.531410	0.626814	0.231887	0.971481	0.626814	0.161315	0.971481	0.516200	0.131067	0.814775	0.479328	0.080650	0.618912	0.442457	1.008186	4.519858	3.281083	0.000000	0.000000	25.477396	-0.955498	6.980970	21.289744	-4.178217	100.091615	39.328316	87.994863	0.956227	25.855195	23.480029	-3.278999	79.346340	40.572152	88.092706	19.226507	33.910381
0.066667	2.131965	-3.080923	91.765316	0.231778	1.020506	0.433457	3.067284	2.875975	2.385821	2.913771	0.050855	23.784840	-10.458133	0.000000	2.428473	-1.851810	2.817028	1.421497	0.024810	24.936972	-2.598623	0.000000	0.135334	0.408646	0.448795	0.251328	0.543499	0.476845	0.222340	0.993582	0.476845	0.154673	0.993582	0.392696	0.125671	0.833311	0.364646	0.077330	0.632992	0.336596	0.966675	4.622684	2.496064	0.000000	0.000000	25.438748	-0.661228	7.576913	21.510076	-4.135929	100.357813	39.404381	87.949338	1.082976	25.773661	23.358732	-3.545465	78.948813	40.811926	88.088637	18.842254	34.017947
0.083333	2.156443	-3.024546	92.053285	0.231221	1.020414	0.433622	2.998406	2.849457	2.208811	2.903507	0.050676	23.894159	-10.353738	0.000000	2.451544	-1.853182	2.732274	1.427500	0.024915	25.248256	-2.225923	0.000000	0.129993	0.415581	0.347131	0.241411	0.552723	0.368827	0.213566	1.010445	0.368827	0.148569	1.010445	0.303740	0.120712	0.847454	0.282044	0.074278	0.643736	0.260348	0.928530	4.701141	1.930638	0.000000	0.000000	25.375929	-0.460284	7.946783	21.620799	-4.130321	100.376530	39.454483	87.958839	1.426118	25.834568	23.417813	-3.634823	79.309056	40.903007	88.110371	18.603255	33.982751
0.100000	2.183804	-2.945904	92.278822	0.230807	1.020420	0.433473	2.873515	2.839061	2.104821	2.860957	0.049933	23.983013	-10.276281	0.000000	2.406933	-1.867636	2.632613	1.417501	0.024740	25.526540	-1.857503	0.000000	0.125218	0.420482	0.281048	0.232543	0.559242	0.298614	0.205721	1.022361	0.298614	0.143112	1.022361	0.245917	0.116278	0.857448	0.228352	0.071550	0.651327	0.210786	0.894421	4.756580	1.563105	0.000000	0.000000	25.294279	-0.339800	8.111984	21.626646	-4.161408	100.152960	39.486459	88.008948	1.942702	26.022448	23.628722	-3.571705	80.307355	40.864852	88.153527	18.494946	33.822537
0.116667	2.213109	-2.849931	92.449478	0.230520	1.020510	0.433052	2.701702	2.842361	2.067217	2.789492	0.048686	24.050037	-10.228133	0.000000	2.305409	-1.892847	2.527901	1.393918	0.024328	25.771361	-1.503937	0.000000	0.121102	0.423468	0.246645	0.224898	0.563213	0.262060	0.198958	1.029620	0.262060	0.138407	1.029620	0.215814	0.112455	0.863536	0.200399	0.069198	0.655952	0.184984	0.865018	4.790356	1.371765	0.000000	0.000000	25.199135	-0.286905	8.093918	21.532350	-4.229199	99.692297	39.508146	88.085247	2.589777	26.321829	23.962907	-3.380743	81.823994	40.716916	88.213728	18.502765	33.555052
0.133333	2.243419	-2.741562	92.572806	0.230341	1.020669	0.432403	2.492055	2.856932	2.089368	2.692482	0.046993	24.093865	-10.211668	0.000000	2.157738	-1.926493	2.427991	1.359168	0.023722	25.982257	-1.175798	0.000000	0.117738	0.424658	0.240020	0.218651	0.564795	0.255021	0.193432	1.032514	0.255021	0.134563	1.032514	0.210017	0.109331	0.865963	0.195016	0.067275	0.657796	0.180015	0.840990	4.803819	1.334918	0.000000	0.000000	25.095837	-0.288734	7.913991	21.342645	-4.333708	98.999733	39.527381	88.173320	3.324390	26.717243	24.391817	-3.086572	83.739259	40.478654	88.286592	18.612146	33.198042
0.150000	2.273796	-2.625731	92.656357	0.230256	1.020882	0.431569	2.253663	2.880348	2.164643	2.573298	0.044913	24.113131	-10.229256	0.000000	1.974690	-1.966250	2.342738	1.315668	0.022963	26.158765	-0.883658	0.000000	0.115220	0.424172	0.257271	0.213976	0.564149	0.273350	0.189295	1.031333	0.273350	0.131685	1.031333	0.225112	0.106994	0.864972	0.209033	0.065837	0.657043	0.192953	0.823007	4.798322	1.430863	0.000000	0.000000	24.989724	-0.332416	7.593605	21.062264	-4.474945	98.080461	39.552002	88.258748	4.103590	27.193220	24.886900	-2.713823	85.933437	40.169524	88.367740	18.808528	32.769253
0.166667	2.303301	-2.507373	92.707684	0.230246	1.021133	0.430592	1.995617	2.910185	2.286408	2.435310	0.042504	24.106470	-10.283272	0.000000	1.767030	-2.009795	2.281997	1.265834	0.022093	26.300422	-0.638089	0.000000	0.113643	0.422130	0.294496	0.211046	0.561433	0.312902	0.186703	1.026367	0.312902	0.129882	1.026367	0.257684	0.105528	0.860807	0.239278	0.064935	0.653879	0.220872	0.811738	4.775219	1.637899	0.000000	0.000000	24.886135	-0.405084	7.154164	20.695941	-4.652925	96.939676	39.589844	88.327115	4.884426	27.734290	25.419606	-2.287130	88.286813	39.808980	88.452792	19.077346	32.286429
0.183333	2.335699	-2.387823	92.752760	0.230242	1.021414	0.429527	1.721138	2.945222	2.415242	2.278325	0.039764	24.073590	-10.339559	0.000000	1.546891	-2.056954	2.275541	1.212007	0.021154	26.417454	-0.436724	0.000000	0.112792	0.419457	0.341057	0.209466	0.557878	0.362373	0.185306	1.019869	0.362373	0.128910	1.019869	0.298425	0.104739	0.855357	0.277109	0.064449	0.649739	0.255793	0.805664	4.744985	1.896859	0.000000	0.000000	24.771425	-0.475096	6.638026	20.252814	-4.873352	95.567007	39.673357	88.589829	5.676276	28.293331	25.884911	-1.880527	90.329112	39.448126	88.519184	19.445723	31.764427
0.200000	2.358631	-2.285064	92.777366	0.230292	1.021692	0.428379	1.453968	2.974645	2.548877	2.112395	0.036868	24.027855	-10.388953	0.000000	1.330767	-2.097331	2.285324	1.160614	0.020257	26.488848	-0.282067	0.000000	0.114356	0.414724	0.403014	0.212371	0.551583	0.428202	0.187876	1.008359	0.428202	0.130698	1.008359	0.352637	0.106191	0.845705	0.327449	0.065343	0.642407	0.302260	0.816835	4.691438	2.241441	0.000000	0.000000	24.691716	-0.515783	6.046674	19.647880	-5.141506	93.686934	39.810202	89.641363	6.592706	28.925006	26.297429	-1.484878	92.211410	39.083532	88.583888	19.831904	31.249510
0.216667	2.374111	-2.203482	92.812668	0.230369	1.021955	0.427244	1.201941	3.003372	2.776644	1.930062	0.033686	23.922851	-10.621735	0.000000	1.133583	-2.130016	2.474987	1.109359	0.019362	26.482860	-0.364422	0.000000	0.117687	0.408276	0.467569	0.218556	0.543007	0.496792	0.193348	0.992682	0.496792	0.134504	0.992682	0.409123	0.109284	0.832556	0.379900	0.067246	0.632419	0.350677	0.840625	4.618499	2.600480	0.000000	0.000000	24.649165	-0.524555	5.418337	18.972319	-5.438108	91.589234	39.955540	90.919484	7.456391	29.590495	26.619447	-1.137494	93.771891	38.741892	88.646000	20.205800	30.756519
0.233333	2.382710	-2.139450	92.824358	0.230497	1.022206	0.426187	0.979662	3.025822	2.966921	1.756966	0.030665	23.831665	-10.792728	0.000000	0.956278	-2.156615	2.657961	1.062871	0.018551	26.444828	-0.482696	0.000000	0.121330	0.400406	0.539638	0.225323	0.532541	0.573366	0.199334	0.973548	0.573366	0.138669	0.973548	0.472184	0.112667	0.816509	0.438456	0.069328	0.620230	0.404729	0.866651	4.529478	3.001307	0.000000	0.000000	24.642821	-0.515284	4.746405	18.263527	-5.776887	89.439803	40.119512	91.295941	7.833626	30.228096	26.865377	-0.846714	95.028277	38.441366	88.678297	20.488015	30.328644
0.250000	2.390163	-2.108088	92.842608	0.230608	1.022390	0.425255	0.795475	3.049038	3.310371	1.573150	0.027457	23.664886	-11.218054	0.000000	0.823260	-2.177705	3.008659	1.020658	0.017814	26.355318	-0.833215	0.000000	0.127284	0.392215	0.611795	0.236379	0.521646	0.650032	0.209115	0.953631	0.650032	0.145473	0.953631	0.535320	0.118196	0.799805	0.497083	0.072730	0.607541	0.458846	0.909176	4.436813	3.402619	0.000000	0.000000	24.672348	-0.487258	4.073453	17.499780	-6.168247	87.164026	40.353933	90.595661	7.678583	30.867538	27.031905	-0.609372	95.926178	38.174923	88.700825	20.799966	29.972071
0.266667	2.396278	-2.101732	92.871705	0.230686	1.022514	0.424504	0.654792	3.065440	3.569983	1.401618	0.024463	23.511652	-11.563819	0.000000	0.737191	-2.193517	3.346727	0.991859	0.017311	26.262927	-1.171921	0.000000	0.134175	0.383884	0.679149	0.249177	0.510565	0.721595	0.220436	0.933374	0.721595	0.153349	0.933374	0.594255	0.124595	0.782815	0.551808	0.076668	0.594636	0.509362	0.958400	4.342567	3.777221	0.000000	0.000000	24.727609	-0.453356	3.417518	16.746881	-6.588113	84.937686	40.639684	88.679201	6.957858	31.452893	27.140191	-0.430896	96.512105	37.951233	88.701840	21.111321	29.678093
0.283333	2.401167	-2.116122	92.900696	0.230744	1.022575	0.423964	0.555492	3.077534	3.852483	1.245170	0.021732	23.305636	-11.985266	0.000000	0.692495	-2.204440	3.698375	0.969735	0.016925	26.172504	-1.549079	0.000000	0.141046	0.375631	0.742227	0.261936	0.499589	0.788616	0.231724	0.913308	0.788616	0.161201	0.913308	0.649448	0.130975	0.765986	0.603059	0.080593	0.581852	0.556670	1.007475	4.249208	4.128043	0.000000	0.000000	24.801485	-0.429792	2.787344	16.003590	-7.038401	82.727254	40.998391	85.581905	5.687376	31.964941	27.189537	-0.313677	96.771457	37.774266	88.688336	21.409042	29.419607
